<svg width="67" height="35" viewBox="0 0 67 35" fill="none" xmlns="http://www.w3.org/2000/svg">
  <path d="M9.68951 23.9829L10.5153 22.4328H17.7754C18.6907 22.4328 19.5275 22.9528 19.9369 23.776C19.9841 23.871 19.9154 23.9829 19.8097 23.9829H9.68951ZM39.9143 34.3356C40.0978 34.3356 40.1895 34.4464 40.1895 34.6678C40.1895 34.8893 40.0978 35 39.9143 35C38.8131 35 37.657 34.9631 36.4458 34.8893C35.2713 34.8155 34.1335 34.7785 33.0325 34.7785C31.7845 34.7785 30.7018 34.8155 29.7843 34.8893C28.8667 34.9631 27.839 35 26.7012 35C26.5545 35 26.481 34.8893 26.481 34.6678C26.481 34.4464 26.5545 34.3356 26.7012 34.3356C28.206 34.3356 29.0685 34.0404 29.2887 33.4499C29.5457 32.8224 29.2154 31.6045 28.2978 29.7959L17.1218 7.5957L19.8195 2.83455L8.86366 27.1386C7.87273 29.353 7.85438 31.1062 8.80867 32.398C9.76294 33.6898 11.2677 34.3356 13.3231 34.3356C13.5066 34.3356 13.5984 34.4464 13.5984 34.6678C13.5984 34.8893 13.5066 35 13.3231 35C12.222 35 11.2127 34.9631 10.2951 34.8893C9.37756 34.8155 8.22141 34.7785 6.82671 34.7785C5.3953 34.7785 4.23917 34.8155 3.3583 34.8893C2.51414 34.9631 1.46811 35 0.220216 35C0.0734055 35 0 34.8893 0 34.6678C0 34.4464 0.0734055 34.3356 0.220216 34.3356C1.21119 34.3356 2.05535 34.1327 2.75271 33.7267C3.48676 33.2838 4.20246 32.5087 4.89981 31.4015C5.63386 30.2573 6.45968 28.6518 7.37725 26.5849L19.324 0.17716C19.3607 0.0664348 19.5259 0.0110722 19.8195 0.0110722C20.1131 -0.0258355 20.2783 0.0295271 20.3149 0.17716L34.0785 27.4154C34.9594 29.1501 35.7118 30.5341 36.3357 31.5676C36.9964 32.5641 37.602 33.2838 38.1525 33.7267C38.7397 34.1327 39.327 34.3356 39.9143 34.3356Z" fill="#14161A"/>
  <path d="M66.3402 34.3356C66.5237 34.3356 66.6154 34.4464 66.6154 34.6678C66.6154 34.8893 66.5237 35 66.3402 35C65.2391 35 64.083 34.9631 62.8718 34.8893C61.6973 34.8155 60.5595 34.7785 59.4584 34.7785C58.2106 34.7785 57.1278 34.8155 56.2102 34.8893C55.2927 34.9631 54.265 35 53.1272 35C52.9804 35 52.9069 34.8893 52.9069 34.6678C52.9069 34.4464 52.9804 34.3356 53.1272 34.3356C54.632 34.3356 55.4945 34.0404 55.7148 33.4499C55.9716 32.8224 55.6413 31.6045 54.7238 29.7959L43.5477 7.5957L46.2454 2.83455L35.2897 27.1386C34.2987 29.353 34.2803 31.1062 35.2346 32.398C36.1889 33.6898 37.6937 34.3356 39.749 34.3356C39.9325 34.3356 40.0243 34.4464 40.0243 34.6678C40.0243 34.8893 39.9325 35 39.749 35C38.648 35 37.6386 34.9631 36.721 34.8893C35.8035 34.8155 34.6474 34.7785 33.2527 34.7785C31.8213 34.7785 30.6651 34.8155 29.7843 34.8893C28.9401 34.9631 27.8941 35 26.6462 35C26.4994 35 26.4259 34.8893 26.4259 34.6678C26.4259 34.4464 26.4994 34.3356 26.6462 34.3356C27.6372 34.3356 28.4814 34.1327 29.1787 33.7267C29.9127 33.2838 30.6284 32.5087 31.3258 31.4015C32.0598 30.2573 32.8856 28.6518 33.8032 26.5849L45.75 0.17716C45.7867 0.0664348 45.9518 0.0110722 46.2454 0.0110722C46.5391 -0.0258355 46.7042 0.0295271 46.7409 0.17716L60.5045 27.4154C61.3853 29.1501 62.1377 30.5341 62.7617 31.5676C63.4223 32.5641 64.0279 33.2838 64.5784 33.7267C65.1657 34.1327 65.7529 34.3356 66.3402 34.3356Z" fill="#14161A"/>
</svg>
