<svg width="54" height="29" viewBox="0 0 54 29" fill="none" xmlns="http://www.w3.org/2000/svg">
  <path d="M7.80945 19.2219L8.47505 17.9795H14.3265C15.0642 17.9795 15.7385 18.3963 16.0685 19.0561C16.1066 19.1323 16.0512 19.2219 15.966 19.2219H7.80945ZM32.1697 27.5195C32.3176 27.5195 32.3915 27.6082 32.3915 27.7857C32.3915 27.9632 32.3176 28.0519 32.1697 28.0519C31.2822 28.0519 30.3504 28.0224 29.3742 27.9632C28.4276 27.904 27.5106 27.8744 26.6232 27.8744C25.6174 27.8744 24.7448 27.904 24.0052 27.9632C23.2657 28.0224 22.4374 28.0519 21.5204 28.0519C21.4021 28.0519 21.3429 27.9632 21.3429 27.7857C21.3429 27.6082 21.4021 27.5195 21.5204 27.5195C22.7332 27.5195 23.4284 27.2828 23.6059 26.8095C23.8129 26.3066 23.5467 25.3305 22.8072 23.881L13.7997 6.08783L15.9739 2.27184L7.14385 21.7511C6.34519 23.526 6.3304 24.9311 7.09953 25.9665C7.86864 27.0018 9.08147 27.5195 10.738 27.5195C10.8859 27.5195 10.9599 27.6082 10.9599 27.7857C10.9599 27.9632 10.8859 28.0519 10.738 28.0519C9.85058 28.0519 9.03708 28.0224 8.29756 27.9632C7.55804 27.904 6.62621 27.8744 5.50212 27.8744C4.34845 27.8744 3.41664 27.904 2.70669 27.9632C2.02632 28.0224 1.18325 28.0519 0.177487 28.0519C0.0591626 28.0519 0 27.9632 0 27.7857C0 27.6082 0.0591626 27.5195 0.177487 27.5195C0.97618 27.5195 1.65655 27.3568 2.2186 27.0314C2.81022 26.6764 3.38706 26.0552 3.9491 25.1678C4.54073 24.2508 5.20631 22.964 5.94584 21.3074L15.5746 0.141991C15.6041 0.0532465 15.7373 0.00887416 15.9739 0.00887416C16.2105 -0.0207068 16.3437 0.0236655 16.3732 0.141991L27.4662 21.973C28.1762 23.3633 28.7826 24.4726 29.2855 25.3009C29.818 26.0996 30.3061 26.6764 30.7498 27.0314C31.2231 27.3568 31.6964 27.5195 32.1697 27.5195Z" fill="#FFFFFF"/>
  <path d="M53.4683 27.5195C53.6162 27.5195 53.6901 27.6082 53.6901 27.7857C53.6901 27.9632 53.6162 28.0519 53.4683 28.0519C52.5809 28.0519 51.649 28.0224 50.6728 27.9632C49.7262 27.904 48.8092 27.8744 47.9218 27.8744C46.916 27.8744 46.0433 27.904 45.3038 27.9632C44.5643 28.0224 43.736 28.0519 42.819 28.0519C42.7007 28.0519 42.6415 27.9632 42.6415 27.7857C42.6415 27.9632 42.7007 27.5195 42.819 27.5195C44.0318 27.5195 44.727 27.2828 44.9045 26.8095C45.1115 26.3066 44.8453 25.3305 44.1058 23.881L35.0983 6.08783L37.2725 2.27184L28.4425 21.7511C27.6438 23.526 27.629 24.9311 28.3981 25.9665C29.1672 27.0018 30.3801 27.5195 32.0366 27.5195C32.1845 27.5195 32.2585 27.6082 32.2585 27.7857C32.2585 27.9632 32.1845 28.0519 32.0366 28.0519C31.1492 28.0519 30.3357 28.0224 29.5961 27.9632C28.8566 27.904 27.9248 27.8744 26.8008 27.8744C25.6471 27.8744 24.7152 27.904 24.0053 27.9632C23.3249 28.0224 22.4819 28.0519 21.4761 28.0519C21.3578 28.0519 21.2986 27.9632 21.2986 27.7857C21.2986 27.6082 21.3578 27.5195 21.4761 27.5195C22.2748 27.5195 22.9552 27.3568 23.5172 27.0314C24.1088 26.6764 24.6856 26.0552 25.2477 25.1678C25.8394 24.2508 26.5049 22.964 27.2445 21.3074L36.8732 0.141991C36.9028 0.0532465 37.0359 0.00887416 37.2725 0.00887416C37.5092 -0.0207068 37.6423 0.0236655 37.6719 0.141991L48.7649 21.973C49.4748 23.3633 50.0812 24.4726 50.5841 25.3009C51.1165 26.0996 51.6046 26.6764 52.0484 27.0314C52.5217 27.3568 52.995 27.5195 53.4683 27.5195Z" fill="#FFFFFF"/>
</svg>
